<?xml version="1.0" standalone="no"?>
<!DOCTYPE svg PUBLIC "-//W3C//DTD SVG 20010904//EN"
 "http://www.w3.org/TR/2001/REC-SVG-20010904/DTD/svg10.dtd">
<svg version="1.0" xmlns="http://www.w3.org/2000/svg"
 width="181.000000pt" height="181.000000pt" viewBox="0 0 181.000000 181.000000"
 preserveAspectRatio="xMidYMid meet">
<metadata>
Created by potrace 1.14, written by Peter Selinger 2001-2017
</metadata>
<g transform="translate(0.000000,181.000000) scale(0.100000,-0.100000)"
fill="#000000" stroke="none">
<path d="M938 1805 c-2 -1 -41 -6 -88 -9 -153 -12 -179 -16 -260 -42 -142 -45
-268 -125 -341 -217 -75 -94 -111 -154 -104 -174 3 -10 35 -42 71 -72 l66 -55
-8 -65 c-5 -36 -8 -151 -9 -255 0 -186 0 -189 -22 -199 -29 -13 -30 -44 -3
-72 11 -12 23 -33 25 -46 3 -13 8 -39 11 -57 3 -18 10 -35 15 -38 5 -3 7 -9 5
-13 -9 -14 40 -86 69 -100 33 -16 238 -26 308 -14 59 9 100 51 148 153 25 52
51 92 61 96 37 11 59 -7 93 -78 43 -89 74 -134 101 -147 34 -15 238 -12 297 5
112 32 126 48 142 159 4 28 18 68 30 90 25 43 20 85 -10 85 -8 0 -15 6 -16 13
0 6 -2 23 -5 37 -7 50 -12 386 -6 416 4 17 32 59 62 93 69 79 87 107 95 152 6
34 3 40 -47 90 -195 197 -347 267 -583 267 -52 0 -95 -2 -97 -3z m83 -181
c-26 -104 -69 -154 -164 -188 -26 -10 -61 -29 -77 -43 l-29 -24 10 31 c9 25
27 39 88 70 91 45 146 101 163 165 7 24 14 42 16 40 3 -2 -1 -25 -7 -51z
m-407 -36 c3 -35 -15 -68 -66 -122 -16 -16 -28 -36 -28 -44 0 -13 -2 -13 -13
2 -16 22 -28 10 -50 -54 l-16 -45 0 40 c-1 51 23 90 93 150 40 35 58 58 62 82
8 40 14 37 18 -9z m852 -84 c-8 -31 -53 -82 -90 -101 -23 -12 -59 -17 -139
-17 -111 -1 -138 7 -64 18 94 14 114 19 165 43 58 27 105 81 119 136 8 32 8
32 11 -12 2 -25 1 -55 -2 -67z m-420 -129 c-11 -8 -25 -15 -30 -15 -6 1 0 7
14 15 32 19 40 18 16 0z m169 -59 c51 -12 95 -37 116 -67 54 -76 87 -193 104
-369 3 -36 8 -77 10 -91 l5 -26 -163 4 -162 3 -99 -46 c-55 -25 -114 -46 -132
-46 -18 0 -68 12 -111 26 -43 14 -103 29 -133 34 -65 10 -286 9 -317 -2 -17
-5 -21 -3 -18 11 2 10 6 81 9 158 8 198 23 250 88 313 27 27 92 56 153 68 42
8 170 26 215 31 30 3 57 7 58 8 7 6 347 -2 377 -9z m227 -596 c36 -17 47 -52
42 -136 -6 -117 -11 -130 -60 -150 -38 -16 -99 -24 -206 -28 -84 -3 -133 14
-168 56 -20 24 -60 139 -56 160 9 52 53 90 124 108 53 13 291 6 324 -10z
m-752 -3 c83 -14 120 -53 114 -121 -6 -56 -38 -138 -65 -166 -34 -34 -58 -38
-220 -35 -112 2 -130 4 -157 24 -50 35 -68 103 -63 238 1 37 24 53 86 63 41 7
261 4 305 -3z"/>
<path d="M765 104 c-99 -37 -189 -53 -323 -57 -39 -2 -9 -15 49 -21 31 -4 67
-9 80 -12 13 -3 67 -7 119 -9 107 -4 148 7 176 49 16 25 16 28 -1 46 -21 23
-45 24 -100 4z"/>
<path d="M973 105 c-34 -24 -19 -62 34 -89 26 -13 53 -15 138 -12 57 3 108 7
112 9 5 3 37 8 73 11 89 10 96 23 13 25 -89 2 -164 16 -254 46 -85 29 -88 30
-116 10z"/>
</g>
</svg>
