<?xml version="1.0" standalone="no"?>
<!DOCTYPE svg PUBLIC "-//W3C//DTD SVG 20010904//EN"
 "http://www.w3.org/TR/2001/REC-SVG-20010904/DTD/svg10.dtd">
<svg version="1.0" xmlns="http://www.w3.org/2000/svg"
 width="260.000000pt" height="260.000000pt" viewBox="0 0 260.000000 260.000000"
 preserveAspectRatio="xMidYMid meet">
<metadata>
Created by potrace 1.14, written by Peter Selinger 2001-2017
</metadata>
<g transform="translate(0.000000,260.000000) scale(0.100000,-0.100000)"
fill="#000000" stroke="none">
<path d="M261 2409 c-151 -69 -264 -261 -247 -421 8 -77 40 -142 101 -205 l51
-53 -33 -67 c-40 -83 -96 -253 -114 -348 -21 -105 -18 -354 5 -434 107 -388
483 -645 1036 -710 111 -13 351 -13 460 -1 727 82 1134 483 1065 1050 -17 148
-70 330 -126 443 l-30 58 26 21 c49 38 85 83 113 138 68 138 17 343 -118 464
-105 94 -247 119 -362 63 -56 -27 -155 -113 -175 -151 -10 -17 -15 -16 -102
19 -50 20 -99 38 -109 40 -9 2 -47 11 -84 19 -103 25 -170 31 -328 31 -126 0
-253 -9 -270 -20 -3 -2 -22 -6 -43 -9 -42 -7 -136 -37 -213 -68 l-50 -20 -66
66 c-86 86 -156 119 -254 122 -59 1 -82 -4 -133 -27z"/>
</g>
</svg>
